<svg id="visual" viewBox="0 0 1920 1080" width="1920" height="1080" xmlns="http://www.w3.org/2000/svg" xmlns:xlink="http://www.w3.org/1999/xlink" version="1.1"><rect x="0" y="0" width="1920" height="1080" fill="#212429"></rect><defs><linearGradient id="grad1_0" x1="43.8%" y1="0%" x2="100%" y2="100%"><stop offset="14.444444444444446%" stop-color="#d63031" stop-opacity="1"></stop><stop offset="85.55555555555554%" stop-color="#d63031" stop-opacity="1"></stop></linearGradient></defs><defs><linearGradient id="grad1_1" x1="43.8%" y1="0%" x2="100%" y2="100%"><stop offset="14.444444444444446%" stop-color="#d63031" stop-opacity="1"></stop><stop offset="85.55555555555554%" stop-color="#c2224d" stop-opacity="1"></stop></linearGradient></defs><defs><linearGradient id="grad1_2" x1="43.8%" y1="0%" x2="100%" y2="100%"><stop offset="14.444444444444446%" stop-color="#a4275f" stop-opacity="1"></stop><stop offset="85.55555555555554%" stop-color="#c2224d" stop-opacity="1"></stop></linearGradient></defs><defs><linearGradient id="grad1_3" x1="43.8%" y1="0%" x2="100%" y2="100%"><stop offset="14.444444444444446%" stop-color="#a4275f" stop-opacity="1"></stop><stop offset="85.55555555555554%" stop-color="#812f67" stop-opacity="1"></stop></linearGradient></defs><defs><linearGradient id="grad1_4" x1="43.8%" y1="0%" x2="100%" y2="100%"><stop offset="14.444444444444446%" stop-color="#5d3464" stop-opacity="1"></stop><stop offset="85.55555555555554%" stop-color="#812f67" stop-opacity="1"></stop></linearGradient></defs><defs><linearGradient id="grad1_5" x1="43.8%" y1="0%" x2="100%" y2="100%"><stop offset="14.444444444444446%" stop-color="#5d3464" stop-opacity="1"></stop><stop offset="85.55555555555554%" stop-color="#3e3356" stop-opacity="1"></stop></linearGradient></defs><defs><linearGradient id="grad1_6" x1="43.8%" y1="0%" x2="100%" y2="100%"><stop offset="14.444444444444446%" stop-color="#292d41" stop-opacity="1"></stop><stop offset="85.55555555555554%" stop-color="#3e3356" stop-opacity="1"></stop></linearGradient></defs><defs><linearGradient id="grad1_7" x1="43.8%" y1="0%" x2="100%" y2="100%"><stop offset="14.444444444444446%" stop-color="#292d41" stop-opacity="1"></stop><stop offset="85.55555555555554%" stop-color="#212429" stop-opacity="1"></stop></linearGradient></defs><defs><linearGradient id="grad2_0" x1="0%" y1="0%" x2="56.3%" y2="100%"><stop offset="14.444444444444446%" stop-color="#d63031" stop-opacity="1"></stop><stop offset="85.55555555555554%" stop-color="#d63031" stop-opacity="1"></stop></linearGradient></defs><defs><linearGradient id="grad2_1" x1="0%" y1="0%" x2="56.3%" y2="100%"><stop offset="14.444444444444446%" stop-color="#c2224d" stop-opacity="1"></stop><stop offset="85.55555555555554%" stop-color="#d63031" stop-opacity="1"></stop></linearGradient></defs><defs><linearGradient id="grad2_2" x1="0%" y1="0%" x2="56.3%" y2="100%"><stop offset="14.444444444444446%" stop-color="#c2224d" stop-opacity="1"></stop><stop offset="85.55555555555554%" stop-color="#a4275f" stop-opacity="1"></stop></linearGradient></defs><defs><linearGradient id="grad2_3" x1="0%" y1="0%" x2="56.3%" y2="100%"><stop offset="14.444444444444446%" stop-color="#812f67" stop-opacity="1"></stop><stop offset="85.55555555555554%" stop-color="#a4275f" stop-opacity="1"></stop></linearGradient></defs><defs><linearGradient id="grad2_4" x1="0%" y1="0%" x2="56.3%" y2="100%"><stop offset="14.444444444444446%" stop-color="#812f67" stop-opacity="1"></stop><stop offset="85.55555555555554%" stop-color="#5d3464" stop-opacity="1"></stop></linearGradient></defs><defs><linearGradient id="grad2_5" x1="0%" y1="0%" x2="56.3%" y2="100%"><stop offset="14.444444444444446%" stop-color="#3e3356" stop-opacity="1"></stop><stop offset="85.55555555555554%" stop-color="#5d3464" stop-opacity="1"></stop></linearGradient></defs><defs><linearGradient id="grad2_6" x1="0%" y1="0%" x2="56.3%" y2="100%"><stop offset="14.444444444444446%" stop-color="#3e3356" stop-opacity="1"></stop><stop offset="85.55555555555554%" stop-color="#292d41" stop-opacity="1"></stop></linearGradient></defs><defs><linearGradient id="grad2_7" x1="0%" y1="0%" x2="56.3%" y2="100%"><stop offset="14.444444444444446%" stop-color="#212429" stop-opacity="1"></stop><stop offset="85.55555555555554%" stop-color="#292d41" stop-opacity="1"></stop></linearGradient></defs><g transform="translate(1920, 0)"><path d="M0 864C-129.8 806 -259.7 748 -394.5 683.3C-529.3 618.5 -669.2 547 -748.2 432C-827.3 317 -845.7 158.5 -864 0L0 0Z" fill="#242935"></path><path d="M0 756C-113.6 705.3 -227.2 654.5 -345.2 597.9C-463.2 541.2 -585.5 478.6 -654.7 378C-723.9 277.4 -740 138.7 -756 0L0 0Z" fill="#32304c"></path><path d="M0 648C-97.4 604.5 -194.8 561 -295.9 512.5C-397 463.9 -501.9 410.3 -561.2 324C-620.5 237.7 -634.2 118.9 -648 0L0 0Z" fill="#4c345e"></path><path d="M0 540C-81.1 503.8 -162.3 467.5 -246.6 427.1C-330.8 386.6 -418.2 341.9 -467.7 270C-517.1 198.1 -528.5 99.1 -540 0L0 0Z" fill="#6f3267"></path><path d="M0 432C-64.9 403 -129.8 374 -197.2 341.6C-264.7 309.3 -334.6 273.5 -374.1 216C-413.7 158.5 -422.8 79.2 -432 0L0 0Z" fill="#932b65"></path><path d="M0 324C-48.7 302.3 -97.4 280.5 -147.9 256.2C-198.5 232 -250.9 205.1 -280.6 162C-310.2 118.9 -317.1 59.4 -324 0L0 0Z" fill="#b42357"></path><path d="M0 216C-32.5 201.5 -64.9 187 -98.6 170.8C-132.3 154.6 -167.3 136.8 -187.1 108C-206.8 79.2 -211.4 39.6 -216 0L0 0Z" fill="#cd2640"></path><path d="M0 108C-16.2 100.8 -32.5 93.5 -49.3 85.4C-66.2 77.3 -83.6 68.4 -93.5 54C-103.4 39.6 -105.7 19.8 -108 0L0 0Z" fill="#d63031"></path></g><g transform="translate(0, 1080)"><path d="M0 -864C121.8 -792.2 243.7 -720.3 379.5 -657.3C515.3 -594.3 665.2 -540.1 748.2 -432C831.3 -323.9 847.7 -162 864 0L0 0Z" fill="#242935"></path><path d="M0 -756C106.6 -693.1 213.2 -630.3 332.1 -575.1C450.9 -520 582 -472.6 654.7 -378C727.4 -283.4 741.7 -141.7 756 0L0 0Z" fill="#32304c"></path><path d="M0 -648C91.4 -594.1 182.8 -540.3 284.6 -493C386.5 -445.7 498.9 -405.1 561.2 -324C623.5 -242.9 635.7 -121.5 648 0L0 0Z" fill="#4c345e"></path><path d="M0 -540C76.1 -495.1 152.3 -450.2 237.2 -410.8C322.1 -371.4 415.7 -337.6 467.7 -270C519.6 -202.4 529.8 -101.2 540 0L0 0Z" fill="#6f3267"></path><path d="M0 -432C60.9 -396.1 121.8 -360.2 189.7 -328.7C257.7 -297.1 332.6 -270 374.1 -216C415.7 -162 423.8 -81 432 0L0 0Z" fill="#932b65"></path><path d="M0 -324C45.7 -297.1 91.4 -270.1 142.3 -246.5C193.2 -222.9 249.4 -202.5 280.6 -162C311.7 -121.5 317.9 -60.7 324 0L0 0Z" fill="#b42357"></path><path d="M0 -216C30.5 -198 60.9 -180.1 94.9 -164.3C128.8 -148.6 166.3 -135 187.1 -108C207.8 -81 211.9 -40.5 216 0L0 0Z" fill="#cd2640"></path><path d="M0 -108C15.2 -99 30.5 -90 47.4 -82.2C64.4 -74.3 83.1 -67.5 93.5 -54C103.9 -40.5 106 -20.2 108 0L0 0Z" fill="#d63031"></path></g></svg>